%FSLAX33Y33*%
%MOMM*%
%ADD10C,0.15*%
%ADD11C,0.5*%
%ADD12C,0.5*%
D10*
%LNtop silkscreen_traces*%
%LNtop silkscreen component 850c937d07aa44eb*%
G01*
X69200Y13000D02*
X69200Y57000D01*
X80800Y57000*
X80800Y13000*
X69200Y13000*
D11*
X68450Y51000D03*
G36*
X68729Y58403D02*
X68814Y58415D01*
X68817Y58377D01*
X68824Y58346D01*
X68833Y58321D01*
X68845Y58303D01*
X68860Y58289D01*
X68878Y58280D01*
X68898Y58274D01*
X68921Y58272D01*
X68938Y58273D01*
X68954Y58276D01*
X68969Y58281D01*
X68982Y58289D01*
X68994Y58298D01*
X69004Y58308D01*
X69012Y58320D01*
X69018Y58333D01*
X69022Y58349D01*
X69025Y58369D01*
X69027Y58394D01*
X69028Y58423D01*
X69028Y58916D01*
X69122Y58916D01*
X69122Y58428D01*
X69121Y58386D01*
X69117Y58348D01*
X69110Y58316D01*
X69101Y58289D01*
X69088Y58266D01*
X69073Y58245D01*
X69054Y58228D01*
X69032Y58214D01*
X69007Y58202D01*
X68981Y58194D01*
X68952Y58189D01*
X68921Y58188D01*
X68877Y58191D01*
X68838Y58201D01*
X68805Y58218D01*
X68777Y58242D01*
X68755Y58272D01*
X68740Y58309D01*
X68731Y58353D01*
X68729Y58403D01*
X68729Y58403D01*
X69573Y58200D02*
X69485Y58200D01*
X69485Y58760D01*
X69468Y58745D01*
X69448Y58730D01*
X69426Y58715D01*
X69401Y58700D01*
X69376Y58685D01*
X69353Y58673D01*
X69330Y58663D01*
X69309Y58654D01*
X69309Y58739D01*
X69345Y58757D01*
X69378Y58777D01*
X69409Y58799D01*
X69438Y58823D01*
X69463Y58848D01*
X69485Y58872D01*
X69502Y58895D01*
X69516Y58919D01*
X69573Y58919D01*
X69573Y58200D01*
X69573Y58200D01*
G37*
%LNtop silkscreen component 22919f5b1da83a9d*%
D10*
X55000Y8746D02*
X35000Y8746D01*
X35000Y23746*
X55000Y23746*
X55000Y8746*
G36*
X56484Y21226D02*
X56460Y21397D01*
X56536Y21404D01*
X56598Y21416D01*
X56648Y21434D01*
X56685Y21459D01*
X56711Y21489D01*
X56730Y21524D01*
X56742Y21564D01*
X56745Y21610D01*
X56743Y21644D01*
X56737Y21676D01*
X56727Y21706D01*
X56713Y21733D01*
X56695Y21757D01*
X56674Y21777D01*
X56650Y21793D01*
X56624Y21804D01*
X56592Y21813D01*
X56551Y21819D01*
X56502Y21823D01*
X56445Y21824D01*
X55458Y21824D01*
X55458Y22013D01*
X56434Y22013D01*
X56519Y22011D01*
X56593Y22003D01*
X56658Y21989D01*
X56712Y21970D01*
X56759Y21945D01*
X56799Y21914D01*
X56834Y21876D01*
X56863Y21832D01*
X56885Y21783D01*
X56901Y21730D01*
X56911Y21672D01*
X56914Y21611D01*
X56908Y21522D01*
X56887Y21445D01*
X56853Y21378D01*
X56806Y21322D01*
X56745Y21279D01*
X56671Y21248D01*
X56584Y21231D01*
X56484Y21226D01*
X56484Y21226D01*
X55809Y23164D02*
X55823Y22989D01*
X55774Y22976D01*
X55733Y22961D01*
X55699Y22943D01*
X55672Y22923D01*
X55639Y22885D01*
X55616Y22843D01*
X55602Y22797D01*
X55597Y22747D01*
X55600Y22706D01*
X55609Y22668D01*
X55623Y22632D01*
X55644Y22599D01*
X55678Y22560D01*
X55718Y22525D01*
X55766Y22495D01*
X55821Y22469D01*
X55885Y22447D01*
X55962Y22432D01*
X56050Y22423D01*
X56152Y22419D01*
X56225Y22511D01*
X56248Y22493D01*
X56301Y22467D01*
X56360Y22451D01*
X56426Y22446D01*
X56426Y22446D01*
X56471Y22448D01*
X56515Y22456D01*
X56558Y22468D01*
X56600Y22485D01*
X56639Y22506D01*
X56673Y22531D01*
X56702Y22560D01*
X56726Y22593D01*
X56745Y22628D01*
X56759Y22664D01*
X56767Y22700D01*
X56770Y22738D01*
X56764Y22792D01*
X56747Y22842D01*
X56719Y22887D01*
X56680Y22929D01*
X56631Y22964D01*
X56574Y22990D01*
X56509Y23005D01*
X56436Y23010D01*
X56366Y23005D01*
X56303Y22990D01*
X56249Y22965D01*
X56202Y22930D01*
X56165Y22888D01*
X56138Y22841D01*
X56122Y22789D01*
X56117Y22731D01*
X56122Y22674D01*
X56138Y22621D01*
X56165Y22573D01*
X56202Y22529D01*
X56225Y22511D01*
X56152Y22419D01*
X56106Y22452D01*
X56067Y22489D01*
X56035Y22530D01*
X56008Y22574D01*
X55988Y22620D01*
X55973Y22668D01*
X55964Y22717D01*
X55961Y22766D01*
X55969Y22851D01*
X55994Y22929D01*
X56034Y23001D01*
X56091Y23066D01*
X56160Y23120D01*
X56239Y23158D01*
X56327Y23181D01*
X56425Y23189D01*
X56491Y23186D01*
X56555Y23175D01*
X56617Y23157D01*
X56676Y23131D01*
X56730Y23099D01*
X56778Y23062D01*
X56819Y23020D01*
X56853Y22971D01*
X56880Y22919D01*
X56899Y22863D01*
X56911Y22804D01*
X56914Y22741D01*
X56904Y22636D01*
X56874Y22542D01*
X56824Y22457D01*
X56753Y22383D01*
X56659Y22322D01*
X56539Y22279D01*
X56393Y22253D01*
X56220Y22244D01*
X56027Y22253D01*
X55862Y22282D01*
X55725Y22330D01*
X55617Y22397D01*
X55545Y22470D01*
X55494Y22554D01*
X55463Y22650D01*
X55453Y22758D01*
X55458Y22838D01*
X55476Y22911D01*
X55506Y22977D01*
X55547Y23034D01*
X55599Y23083D01*
X55660Y23121D01*
X55730Y23148D01*
X55809Y23164D01*
X55809Y23164D01*
X55809Y24276D02*
X55823Y24101D01*
X55774Y24088D01*
X55733Y24073D01*
X55699Y24055D01*
X55672Y24035D01*
X55639Y23997D01*
X55616Y23955D01*
X55602Y23909D01*
X55597Y23859D01*
X55600Y23818D01*
X55609Y23780D01*
X55623Y23745D01*
X55644Y23712D01*
X55678Y23672D01*
X55718Y23637D01*
X55766Y23607D01*
X55821Y23581D01*
X55885Y23560D01*
X55962Y23544D01*
X56050Y23535D01*
X56152Y23531D01*
X56225Y23624D01*
X56248Y23605D01*
X56301Y23579D01*
X56360Y23564D01*
X56426Y23558D01*
X56426Y23558D01*
X56471Y23561D01*
X56515Y23568D01*
X56558Y23580D01*
X56600Y23597D01*
X56639Y23618D01*
X56673Y23643D01*
X56702Y23672D01*
X56726Y23705D01*
X56745Y23740D01*
X56759Y23776D01*
X56767Y23813D01*
X56770Y23850D01*
X56764Y23904D01*
X56747Y23954D01*
X56719Y24000D01*
X56680Y24042D01*
X56631Y24077D01*
X56574Y24102D01*
X56509Y24117D01*
X56436Y24122D01*
X56366Y24117D01*
X56303Y24102D01*
X56249Y24077D01*
X56202Y24043D01*
X56165Y24001D01*
X56138Y23953D01*
X56122Y23901D01*
X56117Y23844D01*
X56122Y23786D01*
X56138Y23733D01*
X56165Y23685D01*
X56202Y23641D01*
X56225Y23624D01*
X56152Y23531D01*
X56106Y23565D01*
X56067Y23602D01*
X56035Y23642D01*
X56008Y23686D01*
X55988Y23733D01*
X55973Y23780D01*
X55964Y23829D01*
X55961Y23879D01*
X55969Y23963D01*
X55994Y24041D01*
X56034Y24113D01*
X56091Y24178D01*
X56160Y24232D01*
X56239Y24271D01*
X56327Y24294D01*
X56425Y24302D01*
X56491Y24298D01*
X56555Y24287D01*
X56617Y24269D01*
X56676Y24243D01*
X56730Y24212D01*
X56778Y24174D01*
X56819Y24132D01*
X56853Y24084D01*
X56880Y24031D01*
X56899Y23975D01*
X56911Y23916D01*
X56914Y23853D01*
X56904Y23748D01*
X56874Y23654D01*
X56824Y23569D01*
X56753Y23495D01*
X56659Y23434D01*
X56539Y23391D01*
X56393Y23365D01*
X56220Y23356D01*
X56027Y23366D01*
X55862Y23395D01*
X55725Y23442D01*
X55617Y23510D01*
X55545Y23582D01*
X55494Y23667D01*
X55463Y23762D01*
X55453Y23870D01*
X55458Y23951D01*
X55476Y24024D01*
X55506Y24089D01*
X55547Y24147D01*
X55599Y24195D01*
X55660Y24233D01*
X55730Y24260D01*
X55809Y24276D01*
X55809Y24276D01*
G37*
%LNtop silkscreen component 794d13895f8c3f47*%
X30985Y10325D02*
X1015Y10325D01*
X1015Y64675*
X30985Y64675*
X30985Y10325*
D12*
X9565Y65650D03*
G36*
X1273Y8425D02*
X1273Y9141D01*
X1542Y9141D01*
X1581Y9139D01*
X1616Y9135D01*
X1647Y9129D01*
X1673Y9119D01*
X1697Y9107D01*
X1718Y9092D01*
X1736Y9073D01*
X1751Y9052D01*
X1763Y9029D01*
X1772Y9006D01*
X1777Y8982D01*
X1779Y8958D01*
X1778Y8935D01*
X1773Y8913D01*
X1765Y8892D01*
X1754Y8871D01*
X1740Y8852D01*
X1723Y8835D01*
X1703Y8819D01*
X1679Y8806D01*
X1651Y8738D01*
X1638Y8744D01*
X1618Y8749D01*
X1594Y8753D01*
X1566Y8755D01*
X1533Y8756D01*
X1368Y8756D01*
X1368Y8509D01*
X1368Y8509D01*
X1546Y8509D01*
X1567Y8510D01*
X1585Y8510D01*
X1600Y8511D01*
X1611Y8513D01*
X1626Y8516D01*
X1641Y8521D01*
X1654Y8526D01*
X1665Y8532D01*
X1676Y8540D01*
X1685Y8549D01*
X1694Y8560D01*
X1701Y8572D01*
X1708Y8586D01*
X1712Y8600D01*
X1715Y8616D01*
X1716Y8633D01*
X1714Y8652D01*
X1710Y8670D01*
X1704Y8687D01*
X1695Y8702D01*
X1684Y8716D01*
X1671Y8727D01*
X1655Y8737D01*
X1651Y8738D01*
X1679Y8806D01*
X1645Y8863D01*
X1657Y8872D01*
X1668Y8884D01*
X1676Y8897D01*
X1681Y8912D01*
X1685Y8928D01*
X1686Y8946D01*
X1685Y8964D01*
X1682Y8980D01*
X1676Y8995D01*
X1669Y9009D01*
X1659Y9022D01*
X1648Y9032D01*
X1635Y9040D01*
X1620Y9046D01*
X1601Y9051D01*
X1577Y9054D01*
X1547Y9056D01*
X1511Y9056D01*
X1368Y9056D01*
X1368Y8840D01*
X1368Y8840D01*
X1523Y8840D01*
X1552Y8841D01*
X1577Y8842D01*
X1597Y8845D01*
X1613Y8848D01*
X1630Y8855D01*
X1645Y8863D01*
X1679Y8806D01*
X1710Y8795D01*
X1736Y8780D01*
X1760Y8762D01*
X1779Y8741D01*
X1794Y8717D01*
X1805Y8691D01*
X1812Y8663D01*
X1814Y8633D01*
X1812Y8608D01*
X1808Y8584D01*
X1802Y8561D01*
X1793Y8539D01*
X1781Y8519D01*
X1769Y8501D01*
X1755Y8485D01*
X1740Y8472D01*
X1723Y8461D01*
X1705Y8452D01*
X1684Y8444D01*
X1662Y8437D01*
X1637Y8432D01*
X1609Y8428D01*
X1579Y8426D01*
X1546Y8425D01*
X1273Y8425D01*
X1273Y8425D01*
X1866Y8425D02*
X2122Y9092D01*
X2189Y9066D01*
X2182Y9031D01*
X2173Y8997D01*
X2162Y8963D01*
X2151Y8929D01*
X2072Y8719D01*
X2072Y8719D01*
X2315Y8719D01*
X2240Y8917D01*
X2224Y8960D01*
X2210Y8999D01*
X2199Y9035D01*
X2189Y9066D01*
X2122Y9092D01*
X2140Y9141D01*
X2242Y9141D01*
X2535Y8425D01*
X2428Y8425D01*
X2344Y8642D01*
X2045Y8642D01*
X1966Y8425D01*
X1866Y8425D01*
X1866Y8425D01*
X2793Y8425D02*
X2793Y9056D01*
X2557Y9056D01*
X2557Y9141D01*
X3125Y9141D01*
X3125Y9056D01*
X2888Y9056D01*
X2888Y8425D01*
X2793Y8425D01*
X2793Y8425D01*
X3517Y8425D02*
X3429Y8425D01*
X3429Y8985D01*
X3412Y8970D01*
X3393Y8955D01*
X3371Y8940D01*
X3346Y8925D01*
X3321Y8910D01*
X3297Y8898D01*
X3275Y8888D01*
X3254Y8879D01*
X3254Y8964D01*
X3289Y8982D01*
X3323Y9002D01*
X3354Y9024D01*
X3383Y9048D01*
X3408Y9073D01*
X3430Y9097D01*
X3447Y9120D01*
X3461Y9144D01*
X3517Y9144D01*
X3517Y8425D01*
X3517Y8425D01*
G37*
%LNtop silkscreen component 6262f7c8d15c121a*%
D10*
X36080Y68205D02*
X53920Y68205D01*
X36080Y68205D02*
X36080Y31795D01*
X53920Y31795*
X53920Y68205*
D11*
X35580Y66688D03*
G36*
X36401Y68505D02*
X36401Y69221D01*
X36646Y69221D01*
X36646Y69136D01*
X36496Y69136D01*
X36496Y68589D01*
X36496Y68589D01*
X36649Y68589D01*
X36682Y68590D01*
X36712Y68593D01*
X36738Y68597D01*
X36760Y68603D01*
X36779Y68610D01*
X36796Y68619D01*
X36811Y68628D01*
X36824Y68640D01*
X36840Y68658D01*
X36854Y68679D01*
X36866Y68703D01*
X36876Y68730D01*
X36885Y68760D01*
X36890Y68793D01*
X36894Y68829D01*
X36895Y68868D01*
X36893Y68921D01*
X36886Y68968D01*
X36874Y69007D01*
X36858Y69041D01*
X36839Y69069D01*
X36817Y69091D01*
X36794Y69109D01*
X36769Y69122D01*
X36747Y69128D01*
X36719Y69133D01*
X36685Y69135D01*
X36646Y69136D01*
X36646Y69221D01*
X36648Y69221D01*
X36687Y69220D01*
X36721Y69218D01*
X36751Y69215D01*
X36775Y69211D01*
X36805Y69202D01*
X36832Y69191D01*
X36857Y69176D01*
X36880Y69159D01*
X36907Y69134D01*
X36929Y69105D01*
X36949Y69073D01*
X36965Y69037D01*
X36977Y68998D01*
X36986Y68957D01*
X36991Y68913D01*
X36993Y68867D01*
X36992Y68827D01*
X36988Y68790D01*
X36982Y68755D01*
X36974Y68722D01*
X36964Y68692D01*
X36952Y68665D01*
X36939Y68640D01*
X36925Y68618D01*
X36910Y68599D01*
X36894Y68581D01*
X36877Y68566D01*
X36860Y68553D01*
X36841Y68542D01*
X36821Y68532D01*
X36798Y68524D01*
X36774Y68517D01*
X36748Y68512D01*
X36720Y68508D01*
X36691Y68506D01*
X36659Y68505D01*
X36401Y68505D01*
X36401Y68505D01*
X37125Y68505D02*
X37125Y69221D01*
X37643Y69221D01*
X37643Y69136D01*
X37220Y69136D01*
X37220Y68917D01*
X37616Y68917D01*
X37616Y68833D01*
X37220Y68833D01*
X37220Y68589D01*
X37659Y68589D01*
X37659Y68505D01*
X37125Y68505D01*
X37125Y68505D01*
X37995Y68505D02*
X37717Y69221D01*
X37820Y69221D01*
X38006Y68701D01*
X38017Y68670D01*
X38027Y68640D01*
X38036Y68611D01*
X38044Y68584D01*
X38052Y68613D01*
X38062Y68642D01*
X38071Y68672D01*
X38082Y68701D01*
X38276Y69221D01*
X38372Y69221D01*
X38092Y68505D01*
X37995Y68505D01*
X37995Y68505D01*
X38753Y68505D02*
X38665Y68505D01*
X38665Y69065D01*
X38648Y69050D01*
X38628Y69035D01*
X38606Y69020D01*
X38581Y69005D01*
X38556Y68990D01*
X38533Y68978D01*
X38510Y68968D01*
X38489Y68959D01*
X38489Y69044D01*
X38525Y69062D01*
X38558Y69082D01*
X38589Y69104D01*
X38618Y69128D01*
X38643Y69153D01*
X38665Y69177D01*
X38682Y69200D01*
X38696Y69224D01*
X38753Y69224D01*
X38753Y68505D01*
X38753Y68505D01*
G37*
%LNtext*%
G36*
X9519Y3000D02*
X9519Y4263D01*
X9047Y4263D01*
X9047Y4432D01*
X10182Y4432D01*
X10182Y4263D01*
X9708Y4263D01*
X9708Y3000D01*
X9519Y3000D01*
X9519Y3000D01*
X10842Y3334D02*
X11023Y3312D01*
X10997Y3236D01*
X10962Y3170D01*
X10918Y3113D01*
X10864Y3064D01*
X10802Y3026D01*
X10732Y2999D01*
X10654Y2982D01*
X10567Y2977D01*
X10459Y2985D01*
X10363Y3012D01*
X10279Y3055D01*
X10206Y3117D01*
X10148Y3194D01*
X10107Y3285D01*
X10082Y3390D01*
X10073Y3510D01*
X10082Y3633D01*
X10107Y3742D01*
X10149Y3836D01*
X10208Y3916D01*
X10280Y3979D01*
X10363Y4024D01*
X10455Y4052D01*
X10558Y4061D01*
X10572Y4059D01*
X10560Y3916D01*
X10501Y3911D01*
X10448Y3896D01*
X10400Y3870D01*
X10356Y3835D01*
X10319Y3791D01*
X10292Y3740D01*
X10274Y3683D01*
X10265Y3618D01*
X10265Y3618D01*
X10844Y3618D01*
X10835Y3680D01*
X10821Y3733D01*
X10802Y3778D01*
X10777Y3814D01*
X10732Y3859D01*
X10681Y3891D01*
X10623Y3910D01*
X10560Y3916D01*
X10572Y4059D01*
X10657Y4052D01*
X10747Y4025D01*
X10827Y3981D01*
X10897Y3919D01*
X10955Y3841D01*
X10996Y3749D01*
X11021Y3642D01*
X11029Y3521D01*
X11029Y3512D01*
X11029Y3501D01*
X11029Y3488D01*
X11028Y3474D01*
X10255Y3474D01*
X10265Y3393D01*
X10284Y3323D01*
X10313Y3262D01*
X10351Y3212D01*
X10398Y3172D01*
X10449Y3144D01*
X10506Y3127D01*
X10568Y3121D01*
X10615Y3124D01*
X10658Y3134D01*
X10697Y3150D01*
X10733Y3172D01*
X10766Y3201D01*
X10795Y3238D01*
X10820Y3282D01*
X10842Y3334D01*
X10842Y3334D01*
X11954Y3334D02*
X12136Y3312D01*
X12110Y3236D01*
X12074Y3170D01*
X12030Y3113D01*
X11977Y3064D01*
X11914Y3026D01*
X11844Y2999D01*
X11766Y2982D01*
X11680Y2977D01*
X11572Y2985D01*
X11476Y3012D01*
X11391Y3055D01*
X11319Y3117D01*
X11260Y3194D01*
X11219Y3285D01*
X11194Y3390D01*
X11185Y3510D01*
X11194Y3633D01*
X11219Y3742D01*
X11261Y3836D01*
X11320Y3916D01*
X11393Y3979D01*
X11475Y4024D01*
X11567Y4052D01*
X11670Y4061D01*
X11685Y4059D01*
X11672Y3916D01*
X11614Y3911D01*
X11560Y3896D01*
X11512Y3870D01*
X11468Y3835D01*
X11432Y3791D01*
X11404Y3740D01*
X11386Y3683D01*
X11377Y3618D01*
X11377Y3618D01*
X11956Y3618D01*
X11947Y3680D01*
X11934Y3733D01*
X11914Y3778D01*
X11890Y3814D01*
X11844Y3859D01*
X11793Y3891D01*
X11736Y3910D01*
X11672Y3916D01*
X11685Y4059D01*
X11769Y4052D01*
X11859Y4025D01*
X11939Y3981D01*
X12010Y3919D01*
X12067Y3841D01*
X12109Y3749D01*
X12133Y3642D01*
X12142Y3521D01*
X12141Y3512D01*
X12141Y3501D01*
X12141Y3488D01*
X12141Y3474D01*
X11367Y3474D01*
X11377Y3393D01*
X11396Y3323D01*
X11425Y3262D01*
X11464Y3212D01*
X11510Y3172D01*
X11561Y3144D01*
X11618Y3127D01*
X11681Y3121D01*
X11727Y3124D01*
X11770Y3134D01*
X11810Y3150D01*
X11846Y3172D01*
X11878Y3201D01*
X11907Y3238D01*
X11932Y3282D01*
X11954Y3334D01*
X11954Y3334D01*
X12356Y3000D02*
X12356Y4037D01*
X12515Y4037D01*
X12515Y3890D01*
X12578Y3964D01*
X12654Y4018D01*
X12743Y4050D01*
X12845Y4061D01*
X12891Y4058D01*
X12935Y4052D01*
X12977Y4042D01*
X13017Y4027D01*
X13054Y4009D01*
X13086Y3988D01*
X13113Y3965D01*
X13135Y3938D01*
X13153Y3910D01*
X13168Y3879D01*
X13180Y3845D01*
X13189Y3809D01*
X13194Y3780D01*
X13197Y3741D01*
X13199Y3694D01*
X13199Y3638D01*
X13199Y3000D01*
X13023Y3000D01*
X13023Y3631D01*
X13022Y3681D01*
X13018Y3725D01*
X13012Y3762D01*
X13003Y3792D01*
X12991Y3817D01*
X12974Y3839D01*
X12954Y3859D01*
X12930Y3876D01*
X12903Y3890D01*
X12873Y3900D01*
X12842Y3906D01*
X12808Y3908D01*
X12753Y3904D01*
X12703Y3890D01*
X12656Y3868D01*
X12614Y3837D01*
X12578Y3793D01*
X12553Y3734D01*
X12537Y3658D01*
X12532Y3566D01*
X12532Y3000D01*
X12356Y3000D01*
X12356Y3000D01*
X13398Y3310D02*
X13572Y3337D01*
X13583Y3288D01*
X13600Y3245D01*
X13624Y3208D01*
X13654Y3177D01*
X13691Y3152D01*
X13734Y3135D01*
X13784Y3125D01*
X13841Y3121D01*
X13897Y3124D01*
X13946Y3133D01*
X13987Y3149D01*
X14020Y3170D01*
X14046Y3196D01*
X14064Y3224D01*
X14075Y3254D01*
X14079Y3286D01*
X14076Y3314D01*
X14066Y3339D01*
X14050Y3361D01*
X14027Y3380D01*
X14003Y3392D01*
X13964Y3406D01*
X13913Y3422D01*
X13848Y3439D01*
X13758Y3463D01*
X13684Y3485D01*
X13624Y3505D01*
X13580Y3524D01*
X13544Y3543D01*
X13514Y3566D01*
X13488Y3593D01*
X13466Y3623D01*
X13449Y3655D01*
X13437Y3689D01*
X13430Y3724D01*
X13428Y3762D01*
X13430Y3796D01*
X13436Y3828D01*
X13446Y3860D01*
X13459Y3890D01*
X13477Y3918D01*
X13497Y3944D01*
X13520Y3967D01*
X13546Y3988D01*
X13568Y4003D01*
X13594Y4016D01*
X13624Y4028D01*
X13658Y4040D01*
X13694Y4049D01*
X13731Y4055D01*
X13770Y4059D01*
X13810Y4061D01*
X13869Y4058D01*
X13924Y4052D01*
X13976Y4041D01*
X14024Y4025D01*
X14067Y4006D01*
X14104Y3984D01*
X14135Y3959D01*
X14160Y3930D01*
X14180Y3898D01*
X14197Y3860D01*
X14211Y3817D01*
X14221Y3770D01*
X14049Y3746D01*
X14040Y3784D01*
X14026Y3817D01*
X14006Y3846D01*
X13981Y3871D01*
X13950Y3891D01*
X13913Y3905D01*
X13871Y3913D01*
X13822Y3916D01*
X13766Y3914D01*
X13718Y3906D01*
X13680Y3893D01*
X13649Y3876D01*
X13627Y3855D01*
X13611Y3833D01*
X13601Y3808D01*
X13598Y3782D01*
X13599Y3766D01*
X13603Y3750D01*
X13610Y3735D01*
X13619Y3721D01*
X13631Y3707D01*
X13647Y3695D01*
X13665Y3684D01*
X13687Y3674D01*
X13706Y3667D01*
X13739Y3658D01*
X13784Y3645D01*
X13842Y3629D01*
X13928Y3605D01*
X14000Y3584D01*
X14058Y3564D01*
X14102Y3547D01*
X14137Y3530D01*
X14168Y3508D01*
X14195Y3484D01*
X14218Y3455D01*
X14236Y3423D01*
X14249Y3387D01*
X14257Y3348D01*
X14260Y3305D01*
X14257Y3261D01*
X14247Y3219D01*
X14231Y3179D01*
X14208Y3139D01*
X14180Y3103D01*
X14146Y3070D01*
X14106Y3042D01*
X14061Y3019D01*
X14011Y3000D01*
X13958Y2987D01*
X13901Y2979D01*
X13842Y2977D01*
X13747Y2982D01*
X13664Y2998D01*
X13593Y3024D01*
X13534Y3061D01*
X13485Y3108D01*
X13447Y3165D01*
X13418Y3232D01*
X13398Y3310D01*
X13398Y3310D01*
X14461Y2601D02*
X14441Y2766D01*
X14469Y2759D01*
X14495Y2754D01*
X14520Y2751D01*
X14542Y2750D01*
X14570Y2751D01*
X14595Y2755D01*
X14617Y2761D01*
X14636Y2770D01*
X14653Y2780D01*
X14668Y2793D01*
X14681Y2808D01*
X14693Y2824D01*
X14703Y2842D01*
X14715Y2870D01*
X14730Y2908D01*
X14747Y2955D01*
X14750Y2963D01*
X14753Y2973D01*
X14758Y2985D01*
X14763Y2998D01*
X14369Y4037D01*
X14559Y4037D01*
X14774Y3437D01*
X14795Y3379D01*
X14814Y3319D01*
X14833Y3259D01*
X14850Y3196D01*
X14866Y3256D01*
X14883Y3316D01*
X14902Y3375D01*
X14922Y3433D01*
X15144Y4037D01*
X15319Y4037D01*
X14925Y2982D01*
X14895Y2904D01*
X14868Y2838D01*
X14846Y2786D01*
X14826Y2747D01*
X14802Y2707D01*
X14776Y2672D01*
X14748Y2643D01*
X14719Y2620D01*
X14687Y2602D01*
X14652Y2589D01*
X14615Y2582D01*
X14574Y2579D01*
X14548Y2580D01*
X14521Y2584D01*
X14492Y2591D01*
X14461Y2601D01*
X14461Y2601D01*
X16047Y3000D02*
X16047Y4432D01*
X16587Y4432D01*
X16654Y4431D01*
X16713Y4428D01*
X16763Y4424D01*
X16805Y4418D01*
X16855Y4407D01*
X16902Y4392D01*
X16944Y4374D01*
X16982Y4351D01*
X17015Y4324D01*
X17046Y4292D01*
X17073Y4255D01*
X17096Y4213D01*
X17115Y4167D01*
X17129Y4120D01*
X17137Y4070D01*
X17140Y4018D01*
X17132Y3930D01*
X17111Y3849D01*
X17074Y3775D01*
X17024Y3708D01*
X16954Y3653D01*
X16860Y3614D01*
X16744Y3590D01*
X16701Y3588D01*
X16692Y3755D01*
X16764Y3768D01*
X16822Y3789D01*
X16867Y3819D01*
X16901Y3857D01*
X16925Y3902D01*
X16940Y3953D01*
X16944Y4012D01*
X16942Y4055D01*
X16933Y4095D01*
X16919Y4132D01*
X16899Y4166D01*
X16875Y4195D01*
X16846Y4219D01*
X16815Y4237D01*
X16779Y4250D01*
X16750Y4256D01*
X16711Y4260D01*
X16662Y4262D01*
X16603Y4263D01*
X16236Y4263D01*
X16236Y3751D01*
X16236Y3751D01*
X16607Y3751D01*
X16692Y3755D01*
X16701Y3588D01*
X16604Y3582D01*
X16236Y3582D01*
X16236Y3000D01*
X16047Y3000D01*
X16047Y3000D01*
X17317Y3460D02*
X17495Y3476D01*
X17504Y3424D01*
X17516Y3378D01*
X17533Y3336D01*
X17554Y3299D01*
X17581Y3267D01*
X17614Y3237D01*
X17653Y3211D01*
X17698Y3188D01*
X17749Y3169D01*
X17802Y3156D01*
X17859Y3148D01*
X17918Y3146D01*
X17971Y3148D01*
X18020Y3154D01*
X18066Y3164D01*
X18110Y3178D01*
X18148Y3195D01*
X18182Y3216D01*
X18210Y3240D01*
X18233Y3266D01*
X18251Y3295D01*
X18263Y3325D01*
X18271Y3356D01*
X18274Y3389D01*
X18271Y3421D01*
X18264Y3452D01*
X18252Y3480D01*
X18235Y3506D01*
X18212Y3530D01*
X18183Y3553D01*
X18147Y3573D01*
X18106Y3591D01*
X18068Y3604D01*
X18013Y3620D01*
X17941Y3639D01*
X17851Y3661D01*
X17759Y3684D01*
X17683Y3707D01*
X17621Y3729D01*
X17574Y3750D01*
X17526Y3778D01*
X17485Y3810D01*
X17450Y3845D01*
X17422Y3883D01*
X17400Y3924D01*
X17384Y3968D01*
X17374Y4013D01*
X17371Y4062D01*
X17375Y4115D01*
X17387Y4166D01*
X17406Y4216D01*
X17433Y4264D01*
X17467Y4308D01*
X17508Y4347D01*
X17557Y4380D01*
X17612Y4407D01*
X17673Y4429D01*
X17737Y4444D01*
X17805Y4453D01*
X17875Y4456D01*
X17952Y4453D01*
X18025Y4443D01*
X18093Y4427D01*
X18156Y4405D01*
X18213Y4376D01*
X18263Y4341D01*
X18307Y4301D01*
X18343Y4254D01*
X18372Y4202D01*
X18393Y4148D01*
X18407Y4090D01*
X18413Y4028D01*
X18232Y4015D01*
X18220Y4078D01*
X18199Y4134D01*
X18170Y4181D01*
X18132Y4220D01*
X18085Y4250D01*
X18028Y4272D01*
X17960Y4285D01*
X17883Y4289D01*
X17803Y4285D01*
X17734Y4273D01*
X17678Y4254D01*
X17632Y4226D01*
X17598Y4193D01*
X17573Y4157D01*
X17559Y4117D01*
X17554Y4074D01*
X17557Y4037D01*
X17568Y4004D01*
X17585Y3974D01*
X17610Y3947D01*
X17648Y3922D01*
X17708Y3897D01*
X17791Y3871D01*
X17895Y3845D01*
X18002Y3820D01*
X18090Y3796D01*
X18160Y3774D01*
X18212Y3754D01*
X18270Y3723D01*
X18321Y3689D01*
X18363Y3650D01*
X18397Y3608D01*
X18423Y3562D01*
X18441Y3513D01*
X18452Y3460D01*
X18456Y3404D01*
X18452Y3348D01*
X18440Y3293D01*
X18419Y3240D01*
X18391Y3189D01*
X18354Y3141D01*
X18311Y3099D01*
X18260Y3063D01*
X18203Y3032D01*
X18140Y3007D01*
X18073Y2990D01*
X18002Y2979D01*
X17927Y2976D01*
X17834Y2979D01*
X17748Y2990D01*
X17671Y3007D01*
X17601Y3032D01*
X17539Y3064D01*
X17484Y3103D01*
X17436Y3149D01*
X17395Y3203D01*
X17362Y3261D01*
X17338Y3324D01*
X17323Y3390D01*
X17317Y3460D01*
X17317Y3460D01*
X19568Y3169D02*
X19568Y3000D01*
X18621Y3000D01*
X18622Y3031D01*
X18625Y3062D01*
X18632Y3092D01*
X18642Y3122D01*
X18663Y3170D01*
X18689Y3218D01*
X18720Y3265D01*
X18757Y3313D01*
X18802Y3361D01*
X18855Y3414D01*
X18917Y3470D01*
X18987Y3529D01*
X19095Y3620D01*
X19183Y3701D01*
X19252Y3772D01*
X19303Y3833D01*
X19339Y3888D01*
X19364Y3941D01*
X19380Y3993D01*
X19385Y4044D01*
X19380Y4094D01*
X19366Y4140D01*
X19343Y4182D01*
X19310Y4220D01*
X19270Y4252D01*
X19224Y4274D01*
X19173Y4288D01*
X19115Y4292D01*
X19055Y4287D01*
X19001Y4273D01*
X18954Y4249D01*
X18912Y4216D01*
X18879Y4174D01*
X18855Y4125D01*
X18840Y4069D01*
X18835Y4005D01*
X18654Y4023D01*
X18670Y4119D01*
X18699Y4202D01*
X18740Y4273D01*
X18794Y4332D01*
X18860Y4378D01*
X18936Y4411D01*
X19022Y4431D01*
X19119Y4438D01*
X19217Y4430D01*
X19304Y4409D01*
X19380Y4373D01*
X19445Y4323D01*
X19498Y4263D01*
X19536Y4195D01*
X19558Y4121D01*
X19566Y4040D01*
X19563Y3997D01*
X19557Y3955D01*
X19546Y3913D01*
X19530Y3871D01*
X19510Y3829D01*
X19484Y3786D01*
X19452Y3742D01*
X19414Y3696D01*
X19366Y3646D01*
X19305Y3587D01*
X19231Y3520D01*
X19143Y3444D01*
X19071Y3383D01*
X19013Y3333D01*
X18969Y3293D01*
X18940Y3264D01*
X18918Y3240D01*
X18899Y3217D01*
X18881Y3193D01*
X18865Y3169D01*
X19568Y3169D01*
X19568Y3169D01*
X21404Y3502D02*
X21594Y3454D01*
X21558Y3344D01*
X21511Y3248D01*
X21451Y3166D01*
X21380Y3098D01*
X21298Y3045D01*
X21208Y3006D01*
X21109Y2983D01*
X21001Y2976D01*
X20891Y2981D01*
X20791Y2999D01*
X20703Y3029D01*
X20625Y3070D01*
X20556Y3122D01*
X20497Y3185D01*
X20446Y3259D01*
X20404Y3343D01*
X20371Y3434D01*
X20347Y3528D01*
X20333Y3626D01*
X20328Y3727D01*
X20334Y3835D01*
X20350Y3936D01*
X20376Y4030D01*
X20414Y4117D01*
X20461Y4195D01*
X20517Y4263D01*
X20583Y4321D01*
X20657Y4370D01*
X20738Y4407D01*
X20823Y4434D01*
X20911Y4451D01*
X21004Y4456D01*
X21107Y4449D01*
X21202Y4429D01*
X21288Y4395D01*
X21365Y4347D01*
X21433Y4286D01*
X21490Y4215D01*
X21535Y4133D01*
X21569Y4039D01*
X21383Y3995D01*
X21355Y4068D01*
X21322Y4130D01*
X21283Y4182D01*
X21238Y4223D01*
X21188Y4254D01*
X21132Y4276D01*
X21069Y4289D01*
X21000Y4294D01*
X20921Y4289D01*
X20849Y4274D01*
X20783Y4249D01*
X20724Y4215D01*
X20673Y4172D01*
X20630Y4122D01*
X20595Y4066D01*
X20569Y4002D01*
X20549Y3935D01*
X20535Y3867D01*
X20526Y3798D01*
X20524Y3728D01*
X20527Y3639D01*
X20537Y3557D01*
X20554Y3480D01*
X20577Y3409D01*
X20607Y3345D01*
X20645Y3290D01*
X20690Y3243D01*
X20742Y3205D01*
X20800Y3176D01*
X20859Y3155D01*
X20921Y3142D01*
X20986Y3138D01*
X21062Y3143D01*
X21132Y3161D01*
X21197Y3189D01*
X21255Y3229D01*
X21306Y3281D01*
X21348Y3344D01*
X21380Y3417D01*
X21404Y3502D01*
X21404Y3502D01*
X21739Y3519D02*
X21749Y3653D01*
X21779Y3769D01*
X21830Y3867D01*
X21900Y3945D01*
X21970Y3996D01*
X22048Y4032D01*
X22133Y4053D01*
X22226Y4061D01*
X22328Y4052D01*
X22420Y4026D01*
X22503Y3982D01*
X22575Y3920D01*
X22635Y3844D01*
X22677Y3754D01*
X22703Y3650D01*
X22711Y3533D01*
X22707Y3438D01*
X22696Y3354D01*
X22677Y3281D01*
X22651Y3218D01*
X22618Y3164D01*
X22577Y3116D01*
X22530Y3075D01*
X22476Y3040D01*
X22418Y3012D01*
X22356Y2992D01*
X22292Y2981D01*
X22226Y2977D01*
X22214Y2978D01*
X22226Y3121D01*
X22288Y3127D01*
X22346Y3146D01*
X22397Y3177D01*
X22444Y3221D01*
X22482Y3277D01*
X22509Y3346D01*
X22525Y3429D01*
X22530Y3524D01*
X22525Y3615D01*
X22509Y3693D01*
X22481Y3761D01*
X22443Y3816D01*
X22397Y3859D01*
X22345Y3890D01*
X22288Y3909D01*
X22226Y3915D01*
X22163Y3909D01*
X22105Y3890D01*
X22053Y3860D01*
X22007Y3816D01*
X21969Y3761D01*
X21942Y3693D01*
X21926Y3612D01*
X21920Y3519D01*
X21920Y3519D01*
X21926Y3425D01*
X21942Y3344D01*
X21969Y3276D01*
X22007Y3220D01*
X22053Y3177D01*
X22105Y3146D01*
X22163Y3127D01*
X22226Y3121D01*
X22214Y2978D01*
X22122Y2985D01*
X22029Y3011D01*
X21946Y3055D01*
X21874Y3116D01*
X21815Y3194D01*
X21773Y3287D01*
X21748Y3395D01*
X21739Y3519D01*
X21739Y3519D01*
X22917Y3000D02*
X22917Y4037D01*
X23075Y4037D01*
X23075Y3890D01*
X23139Y3964D01*
X23215Y4018D01*
X23304Y4050D01*
X23405Y4061D01*
X23451Y4058D01*
X23495Y4052D01*
X23538Y4042D01*
X23578Y4027D01*
X23615Y4009D01*
X23647Y3988D01*
X23673Y3965D01*
X23695Y3938D01*
X23714Y3910D01*
X23729Y3879D01*
X23741Y3845D01*
X23750Y3809D01*
X23754Y3780D01*
X23758Y3741D01*
X23759Y3694D01*
X23760Y3638D01*
X23760Y3000D01*
X23584Y3000D01*
X23584Y3631D01*
X23583Y3681D01*
X23579Y3725D01*
X23573Y3762D01*
X23564Y3792D01*
X23551Y3817D01*
X23535Y3839D01*
X23515Y3859D01*
X23491Y3876D01*
X23464Y3890D01*
X23434Y3900D01*
X23402Y3906D01*
X23368Y3908D01*
X23314Y3904D01*
X23264Y3890D01*
X23217Y3868D01*
X23175Y3837D01*
X23139Y3793D01*
X23113Y3734D01*
X23098Y3658D01*
X23093Y3566D01*
X23093Y3000D01*
X22917Y3000D01*
X22917Y3000D01*
X24413Y3157D02*
X24439Y3002D01*
X24403Y2995D01*
X24368Y2990D01*
X24336Y2987D01*
X24306Y2986D01*
X24261Y2988D01*
X24221Y2994D01*
X24186Y3003D01*
X24157Y3017D01*
X24133Y3033D01*
X24113Y3052D01*
X24096Y3073D01*
X24083Y3096D01*
X24074Y3128D01*
X24067Y3173D01*
X24063Y3231D01*
X24062Y3304D01*
X24062Y3900D01*
X23933Y3900D01*
X23933Y4037D01*
X24062Y4037D01*
X24062Y4294D01*
X24237Y4399D01*
X24237Y4037D01*
X24413Y4037D01*
X24413Y3900D01*
X24237Y3900D01*
X24237Y3294D01*
X24237Y3260D01*
X24239Y3232D01*
X24242Y3211D01*
X24246Y3197D01*
X24251Y3187D01*
X24258Y3178D01*
X24266Y3170D01*
X24276Y3163D01*
X24288Y3158D01*
X24302Y3154D01*
X24318Y3151D01*
X24336Y3150D01*
X24352Y3151D01*
X24370Y3152D01*
X24391Y3154D01*
X24413Y3157D01*
X24413Y3157D01*
X24583Y3000D02*
X24583Y4037D01*
X24741Y4037D01*
X24741Y3880D01*
X24771Y3930D01*
X24800Y3971D01*
X24827Y4003D01*
X24853Y4025D01*
X24879Y4041D01*
X24907Y4052D01*
X24936Y4058D01*
X24966Y4061D01*
X25011Y4057D01*
X25056Y4046D01*
X25101Y4029D01*
X25147Y4004D01*
X25086Y3841D01*
X25054Y3857D01*
X25022Y3869D01*
X24989Y3877D01*
X24957Y3879D01*
X24929Y3877D01*
X24903Y3870D01*
X24877Y3859D01*
X24854Y3844D01*
X24832Y3825D01*
X24814Y3803D01*
X24800Y3777D01*
X24788Y3748D01*
X24775Y3700D01*
X24766Y3650D01*
X24761Y3598D01*
X24759Y3543D01*
X24759Y3000D01*
X24583Y3000D01*
X24583Y3000D01*
X25186Y3519D02*
X25196Y3653D01*
X25226Y3769D01*
X25276Y3867D01*
X25346Y3945D01*
X25416Y3996D01*
X25494Y4032D01*
X25580Y4053D01*
X25672Y4061D01*
X25774Y4052D01*
X25866Y4026D01*
X25949Y3982D01*
X26022Y3920D01*
X26081Y3844D01*
X26123Y3754D01*
X26149Y3650D01*
X26157Y3533D01*
X26154Y3438D01*
X26142Y3354D01*
X26124Y3281D01*
X26097Y3218D01*
X26064Y3164D01*
X26024Y3116D01*
X25976Y3075D01*
X25923Y3040D01*
X25864Y3012D01*
X25803Y2992D01*
X25739Y2981D01*
X25672Y2977D01*
X25660Y2978D01*
X25672Y3121D01*
X25735Y3127D01*
X25792Y3146D01*
X25844Y3177D01*
X25890Y3221D01*
X25928Y3277D01*
X25955Y3346D01*
X25971Y3429D01*
X25977Y3524D01*
X25971Y3615D01*
X25955Y3693D01*
X25928Y3761D01*
X25889Y3816D01*
X25843Y3859D01*
X25791Y3890D01*
X25734Y3909D01*
X25672Y3915D01*
X25609Y3909D01*
X25551Y3890D01*
X25500Y3860D01*
X25453Y3816D01*
X25415Y3761D01*
X25388Y3693D01*
X25372Y3612D01*
X25366Y3519D01*
X25366Y3519D01*
X25372Y3425D01*
X25388Y3344D01*
X25415Y3276D01*
X25453Y3220D01*
X25500Y3177D01*
X25551Y3146D01*
X25609Y3127D01*
X25672Y3121D01*
X25660Y2978D01*
X25568Y2985D01*
X25475Y3011D01*
X25392Y3055D01*
X25320Y3116D01*
X25261Y3194D01*
X25219Y3287D01*
X25194Y3395D01*
X25186Y3519D01*
X25186Y3519D01*
X26360Y3000D02*
X26360Y4432D01*
X26535Y4432D01*
X26535Y3000D01*
X26360Y3000D01*
X26360Y3000D01*
X26804Y3000D02*
X26804Y4432D01*
X26980Y4432D01*
X26980Y3000D01*
X26804Y3000D01*
X26804Y3000D01*
X27962Y3334D02*
X28144Y3312D01*
X28118Y3236D01*
X28082Y3170D01*
X28038Y3113D01*
X27984Y3064D01*
X27922Y3026D01*
X27852Y2999D01*
X27774Y2982D01*
X27688Y2977D01*
X27580Y2985D01*
X27484Y3012D01*
X27399Y3055D01*
X27327Y3117D01*
X27268Y3194D01*
X27227Y3285D01*
X27202Y3390D01*
X27193Y3510D01*
X27202Y3633D01*
X27227Y3742D01*
X27269Y3836D01*
X27328Y3916D01*
X27401Y3979D01*
X27483Y4024D01*
X27575Y4052D01*
X27678Y4061D01*
X27693Y4059D01*
X27680Y3916D01*
X27622Y3911D01*
X27568Y3896D01*
X27520Y3870D01*
X27476Y3835D01*
X27439Y3791D01*
X27412Y3740D01*
X27394Y3683D01*
X27385Y3618D01*
X27385Y3618D01*
X27964Y3618D01*
X27955Y3680D01*
X27941Y3733D01*
X27922Y3778D01*
X27898Y3814D01*
X27852Y3859D01*
X27801Y3891D01*
X27744Y3910D01*
X27680Y3916D01*
X27693Y4059D01*
X27777Y4052D01*
X27867Y4025D01*
X27947Y3981D01*
X28018Y3919D01*
X28075Y3841D01*
X28117Y3749D01*
X28141Y3642D01*
X28149Y3521D01*
X28149Y3512D01*
X28149Y3501D01*
X28149Y3488D01*
X28149Y3474D01*
X27375Y3474D01*
X27385Y3393D01*
X27404Y3323D01*
X27433Y3262D01*
X27472Y3212D01*
X27518Y3172D01*
X27569Y3144D01*
X27626Y3127D01*
X27689Y3121D01*
X27735Y3124D01*
X27778Y3134D01*
X27818Y3150D01*
X27854Y3172D01*
X27886Y3201D01*
X27915Y3238D01*
X27940Y3282D01*
X27962Y3334D01*
X27962Y3334D01*
X28362Y3000D02*
X28362Y4037D01*
X28521Y4037D01*
X28521Y3880D01*
X28550Y3930D01*
X28579Y3971D01*
X28606Y4003D01*
X28632Y4025D01*
X28659Y4041D01*
X28686Y4052D01*
X28715Y4058D01*
X28745Y4061D01*
X28790Y4057D01*
X28835Y4046D01*
X28880Y4029D01*
X28926Y4004D01*
X28865Y3841D01*
X28833Y3857D01*
X28801Y3869D01*
X28769Y3877D01*
X28736Y3879D01*
X28708Y3877D01*
X28682Y3870D01*
X28657Y3859D01*
X28633Y3844D01*
X28612Y3825D01*
X28594Y3803D01*
X28579Y3777D01*
X28567Y3748D01*
X28555Y3700D01*
X28546Y3650D01*
X28540Y3598D01*
X28538Y3543D01*
X28538Y3000D01*
X28362Y3000D01*
X28362Y3000D01*
X29641Y3000D02*
X29641Y4432D01*
X29830Y4432D01*
X29830Y3000D01*
X29641Y3000D01*
X29641Y3000D01*
X30142Y3000D02*
X30142Y4037D01*
X30300Y4037D01*
X30300Y3890D01*
X30363Y3964D01*
X30439Y4018D01*
X30528Y4050D01*
X30630Y4061D01*
X30676Y4058D01*
X30720Y4052D01*
X30762Y4042D01*
X30802Y4027D01*
X30839Y4009D01*
X30871Y3988D01*
X30898Y3965D01*
X30920Y3938D01*
X30938Y3910D01*
X30953Y3879D01*
X30965Y3845D01*
X30975Y3809D01*
X30979Y3780D01*
X30982Y3741D01*
X30984Y3694D01*
X30984Y3638D01*
X30984Y3000D01*
X30809Y3000D01*
X30809Y3631D01*
X30807Y3681D01*
X30803Y3725D01*
X30797Y3762D01*
X30788Y3792D01*
X30776Y3817D01*
X30760Y3839D01*
X30739Y3859D01*
X30715Y3876D01*
X30688Y3890D01*
X30659Y3900D01*
X30627Y3906D01*
X30593Y3908D01*
X30539Y3904D01*
X30488Y3890D01*
X30442Y3868D01*
X30399Y3837D01*
X30363Y3793D01*
X30338Y3734D01*
X30323Y3658D01*
X30317Y3566D01*
X30317Y3000D01*
X30142Y3000D01*
X30142Y3000D01*
X31638Y3157D02*
X31663Y3002D01*
X31627Y2995D01*
X31593Y2990D01*
X31561Y2987D01*
X31530Y2986D01*
X31485Y2988D01*
X31445Y2994D01*
X31411Y3003D01*
X31382Y3017D01*
X31357Y3033D01*
X31337Y3052D01*
X31320Y3073D01*
X31308Y3096D01*
X31298Y3128D01*
X31292Y3173D01*
X31288Y3231D01*
X31286Y3304D01*
X31286Y3900D01*
X31157Y3900D01*
X31157Y4037D01*
X31286Y4037D01*
X31286Y4294D01*
X31461Y4399D01*
X31461Y4037D01*
X31638Y4037D01*
X31638Y3900D01*
X31461Y3900D01*
X31461Y3294D01*
X31462Y3260D01*
X31463Y3232D01*
X31466Y3211D01*
X31470Y3197D01*
X31476Y3187D01*
X31482Y3178D01*
X31491Y3170D01*
X31501Y3163D01*
X31512Y3158D01*
X31526Y3154D01*
X31542Y3151D01*
X31561Y3150D01*
X31576Y3151D01*
X31595Y3152D01*
X31615Y3154D01*
X31638Y3157D01*
X31638Y3157D01*
X32520Y3334D02*
X32701Y3312D01*
X32675Y3236D01*
X32640Y3170D01*
X32596Y3113D01*
X32542Y3064D01*
X32480Y3026D01*
X32410Y2999D01*
X32331Y2982D01*
X32245Y2977D01*
X32137Y2985D01*
X32041Y3012D01*
X31957Y3055D01*
X31884Y3117D01*
X31826Y3194D01*
X31784Y3285D01*
X31759Y3390D01*
X31751Y3510D01*
X31759Y3633D01*
X31785Y3742D01*
X31827Y3836D01*
X31886Y3916D01*
X31958Y3979D01*
X32041Y4024D01*
X32133Y4052D01*
X32235Y4061D01*
X32250Y4059D01*
X32237Y3916D01*
X32179Y3911D01*
X32126Y3896D01*
X32077Y3870D01*
X32034Y3835D01*
X31997Y3791D01*
X31970Y3740D01*
X31951Y3683D01*
X31942Y3618D01*
X31942Y3618D01*
X32522Y3618D01*
X32513Y3680D01*
X32499Y3733D01*
X32480Y3778D01*
X32455Y3814D01*
X32410Y3859D01*
X32359Y3891D01*
X32301Y3910D01*
X32237Y3916D01*
X32250Y4059D01*
X32335Y4052D01*
X32424Y4025D01*
X32505Y3981D01*
X32575Y3919D01*
X32633Y3841D01*
X32674Y3749D01*
X32699Y3642D01*
X32707Y3521D01*
X32707Y3512D01*
X32707Y3501D01*
X32707Y3488D01*
X32706Y3474D01*
X31933Y3474D01*
X31942Y3393D01*
X31962Y3323D01*
X31991Y3262D01*
X32029Y3212D01*
X32075Y3172D01*
X32127Y3144D01*
X32184Y3127D01*
X32246Y3121D01*
X32293Y3124D01*
X32336Y3134D01*
X32375Y3150D01*
X32411Y3172D01*
X32444Y3201D01*
X32472Y3238D01*
X32498Y3282D01*
X32520Y3334D01*
X32520Y3334D01*
X32920Y3000D02*
X32920Y4037D01*
X33078Y4037D01*
X33078Y3880D01*
X33108Y3930D01*
X33136Y3971D01*
X33164Y4003D01*
X33190Y4025D01*
X33216Y4041D01*
X33244Y4052D01*
X33273Y4058D01*
X33303Y4061D01*
X33347Y4057D01*
X33392Y4046D01*
X33438Y4029D01*
X33483Y4004D01*
X33423Y3841D01*
X33391Y3857D01*
X33358Y3869D01*
X33326Y3877D01*
X33294Y3879D01*
X33266Y3877D01*
X33239Y3870D01*
X33214Y3859D01*
X33190Y3844D01*
X33169Y3825D01*
X33151Y3803D01*
X33136Y3777D01*
X33125Y3748D01*
X33112Y3700D01*
X33103Y3650D01*
X33098Y3598D01*
X33096Y3543D01*
X33096Y3000D01*
X32920Y3000D01*
X32920Y3000D01*
X33630Y3000D02*
X33630Y3900D01*
X33475Y3900D01*
X33475Y4037D01*
X33630Y4037D01*
X33630Y4147D01*
X33631Y4196D01*
X33635Y4239D01*
X33640Y4274D01*
X33648Y4303D01*
X33664Y4335D01*
X33683Y4365D01*
X33708Y4391D01*
X33738Y4414D01*
X33773Y4432D01*
X33815Y4445D01*
X33863Y4453D01*
X33917Y4456D01*
X33955Y4455D01*
X33995Y4452D01*
X34037Y4446D01*
X34081Y4438D01*
X34055Y4285D01*
X34028Y4289D01*
X34001Y4292D01*
X33976Y4294D01*
X33951Y4295D01*
X33914Y4293D01*
X33883Y4286D01*
X33857Y4276D01*
X33838Y4261D01*
X33823Y4240D01*
X33813Y4212D01*
X33807Y4176D01*
X33805Y4133D01*
X33805Y4037D01*
X34007Y4037D01*
X34007Y3900D01*
X33805Y3900D01*
X33805Y3000D01*
X33630Y3000D01*
X33630Y3000D01*
X34820Y3128D02*
X34772Y3089D01*
X34765Y3085D01*
X34698Y3183D01*
X34730Y3211D01*
X34756Y3244D01*
X34777Y3280D01*
X34790Y3314D01*
X34799Y3354D01*
X34804Y3401D01*
X34806Y3456D01*
X34806Y3521D01*
X34806Y3521D01*
X34752Y3502D01*
X34686Y3484D01*
X34608Y3469D01*
X34519Y3454D01*
X34468Y3446D01*
X34426Y3437D01*
X34392Y3428D01*
X34365Y3419D01*
X34344Y3408D01*
X34325Y3395D01*
X34309Y3379D01*
X34296Y3362D01*
X34285Y3342D01*
X34278Y3322D01*
X34273Y3301D01*
X34271Y3278D01*
X34275Y3245D01*
X34285Y3214D01*
X34301Y3186D01*
X34325Y3161D01*
X34354Y3141D01*
X34390Y3126D01*
X34432Y3117D01*
X34480Y3114D01*
X34530Y3117D01*
X34576Y3125D01*
X34620Y3139D01*
X34661Y3159D01*
X34698Y3183D01*
X34765Y3085D01*
X34724Y3057D01*
X34678Y3031D01*
X34632Y3011D01*
X34586Y2996D01*
X34539Y2985D01*
X34489Y2979D01*
X34438Y2977D01*
X34358Y2982D01*
X34287Y2997D01*
X34227Y3024D01*
X34176Y3060D01*
X34136Y3105D01*
X34107Y3155D01*
X34090Y3211D01*
X34084Y3273D01*
X34086Y3311D01*
X34093Y3346D01*
X34103Y3380D01*
X34119Y3413D01*
X34137Y3443D01*
X34159Y3469D01*
X34183Y3493D01*
X34209Y3514D01*
X34238Y3532D01*
X34269Y3547D01*
X34302Y3560D01*
X34336Y3571D01*
X34365Y3578D01*
X34401Y3585D01*
X34443Y3591D01*
X34492Y3598D01*
X34592Y3611D01*
X34677Y3625D01*
X34748Y3641D01*
X34806Y3658D01*
X34806Y3675D01*
X34806Y3688D01*
X34807Y3698D01*
X34807Y3704D01*
X34804Y3754D01*
X34794Y3796D01*
X34779Y3830D01*
X34757Y3855D01*
X34719Y3882D01*
X34673Y3900D01*
X34619Y3911D01*
X34557Y3915D01*
X34499Y3912D01*
X34449Y3904D01*
X34407Y3891D01*
X34374Y3872D01*
X34346Y3846D01*
X34322Y3811D01*
X34302Y3769D01*
X34286Y3718D01*
X34114Y3741D01*
X34128Y3794D01*
X34145Y3841D01*
X34166Y3883D01*
X34191Y3919D01*
X34221Y3951D01*
X34257Y3979D01*
X34299Y4004D01*
X34347Y4024D01*
X34399Y4040D01*
X34456Y4051D01*
X34517Y4058D01*
X34582Y4061D01*
X34645Y4059D01*
X34702Y4053D01*
X34753Y4043D01*
X34798Y4029D01*
X34837Y4013D01*
X34870Y3994D01*
X34898Y3973D01*
X34920Y3951D01*
X34938Y3925D01*
X34953Y3897D01*
X34965Y3866D01*
X34975Y3831D01*
X34978Y3804D01*
X34981Y3768D01*
X34983Y3723D01*
X34983Y3669D01*
X34983Y3435D01*
X34984Y3323D01*
X34986Y3234D01*
X34990Y3168D01*
X34995Y3125D01*
X35002Y3092D01*
X35011Y3061D01*
X35024Y3030D01*
X35039Y3000D01*
X34855Y3000D01*
X34843Y3029D01*
X34833Y3059D01*
X34825Y3092D01*
X34820Y3128D01*
X34820Y3128D01*
X35933Y3380D02*
X36105Y3357D01*
X36086Y3273D01*
X36055Y3198D01*
X36013Y3133D01*
X35960Y3078D01*
X35899Y3033D01*
X35830Y3002D01*
X35755Y2983D01*
X35674Y2977D01*
X35573Y2985D01*
X35482Y3011D01*
X35401Y3055D01*
X35332Y3116D01*
X35275Y3193D01*
X35235Y3285D01*
X35210Y3392D01*
X35202Y3515D01*
X35206Y3596D01*
X35216Y3672D01*
X35233Y3743D01*
X35258Y3809D01*
X35289Y3868D01*
X35328Y3919D01*
X35374Y3962D01*
X35427Y3998D01*
X35485Y4025D01*
X35546Y4045D01*
X35609Y4057D01*
X35675Y4061D01*
X35755Y4055D01*
X35828Y4039D01*
X35894Y4012D01*
X35951Y3975D01*
X36000Y3928D01*
X36039Y3872D01*
X36069Y3807D01*
X36089Y3732D01*
X35918Y3706D01*
X35903Y3755D01*
X35884Y3798D01*
X35860Y3834D01*
X35832Y3863D01*
X35799Y3886D01*
X35763Y3903D01*
X35724Y3913D01*
X35682Y3916D01*
X35618Y3910D01*
X35561Y3892D01*
X35510Y3862D01*
X35466Y3821D01*
X35430Y3766D01*
X35404Y3698D01*
X35388Y3616D01*
X35383Y3520D01*
X35388Y3422D01*
X35403Y3339D01*
X35428Y3270D01*
X35463Y3216D01*
X35506Y3174D01*
X35555Y3145D01*
X35610Y3127D01*
X35672Y3121D01*
X35722Y3125D01*
X35767Y3137D01*
X35808Y3157D01*
X35845Y3185D01*
X35876Y3221D01*
X35901Y3265D01*
X35920Y3318D01*
X35933Y3380D01*
X35933Y3380D01*
X36966Y3334D02*
X37148Y3312D01*
X37121Y3236D01*
X37086Y3170D01*
X37042Y3113D01*
X36988Y3064D01*
X36926Y3026D01*
X36856Y2999D01*
X36778Y2982D01*
X36691Y2977D01*
X36584Y2985D01*
X36487Y3012D01*
X36403Y3055D01*
X36331Y3117D01*
X36272Y3194D01*
X36231Y3285D01*
X36206Y3390D01*
X36197Y3510D01*
X36206Y3633D01*
X36231Y3742D01*
X36273Y3836D01*
X36332Y3916D01*
X36404Y3979D01*
X36487Y4024D01*
X36579Y4052D01*
X36682Y4061D01*
X36696Y4059D01*
X36684Y3916D01*
X36626Y3911D01*
X36572Y3896D01*
X36524Y3870D01*
X36480Y3835D01*
X36443Y3791D01*
X36416Y3740D01*
X36398Y3683D01*
X36389Y3618D01*
X36389Y3618D01*
X36968Y3618D01*
X36959Y3680D01*
X36945Y3733D01*
X36926Y3778D01*
X36901Y3814D01*
X36856Y3859D01*
X36805Y3891D01*
X36747Y3910D01*
X36684Y3916D01*
X36696Y4059D01*
X36781Y4052D01*
X36871Y4025D01*
X36951Y3981D01*
X37022Y3919D01*
X37079Y3841D01*
X37120Y3749D01*
X37145Y3642D01*
X37153Y3521D01*
X37153Y3512D01*
X37153Y3501D01*
X37153Y3488D01*
X37152Y3474D01*
X36379Y3474D01*
X36389Y3393D01*
X36408Y3323D01*
X36437Y3262D01*
X36476Y3212D01*
X36522Y3172D01*
X36573Y3144D01*
X36630Y3127D01*
X36692Y3121D01*
X36739Y3124D01*
X36782Y3134D01*
X36822Y3150D01*
X36857Y3172D01*
X36890Y3201D01*
X36919Y3238D01*
X36944Y3282D01*
X36966Y3334D01*
X36966Y3334D01*
X9563Y1000D02*
X9009Y2432D01*
X9214Y2432D01*
X9586Y1392D01*
X9607Y1330D01*
X9627Y1271D01*
X9645Y1213D01*
X9661Y1157D01*
X9678Y1216D01*
X9697Y1274D01*
X9717Y1333D01*
X9738Y1392D01*
X10125Y2432D01*
X10318Y2432D01*
X9758Y1000D01*
X9563Y1000D01*
X9563Y1000D01*
X11065Y1334D02*
X11247Y1312D01*
X11221Y1236D01*
X11186Y1170D01*
X11141Y1113D01*
X11088Y1064D01*
X11026Y1026D01*
X10956Y0999D01*
X10877Y0982D01*
X10791Y0977D01*
X10683Y0985D01*
X10587Y1012D01*
X10503Y1055D01*
X10430Y1117D01*
X10372Y1194D01*
X10330Y1285D01*
X10305Y1390D01*
X10297Y1510D01*
X10305Y1633D01*
X10331Y1742D01*
X10373Y1836D01*
X10432Y1916D01*
X10504Y1979D01*
X10586Y2024D01*
X10679Y2052D01*
X10781Y2061D01*
X10796Y2059D01*
X10783Y1916D01*
X10725Y1911D01*
X10672Y1896D01*
X10623Y1870D01*
X10580Y1835D01*
X10543Y1791D01*
X10516Y1740D01*
X10497Y1683D01*
X10488Y1618D01*
X10488Y1618D01*
X11067Y1618D01*
X11059Y1680D01*
X11045Y1733D01*
X11026Y1778D01*
X11001Y1814D01*
X10956Y1859D01*
X10905Y1891D01*
X10847Y1910D01*
X10783Y1916D01*
X10796Y2059D01*
X10881Y2052D01*
X10970Y2025D01*
X11050Y1981D01*
X11121Y1919D01*
X11179Y1841D01*
X11220Y1749D01*
X11245Y1642D01*
X11253Y1521D01*
X11253Y1512D01*
X11253Y1501D01*
X11252Y1488D01*
X11252Y1474D01*
X10479Y1474D01*
X10488Y1393D01*
X10508Y1323D01*
X10537Y1262D01*
X10575Y1212D01*
X10621Y1172D01*
X10673Y1144D01*
X10730Y1127D01*
X10792Y1121D01*
X10839Y1124D01*
X10882Y1134D01*
X10921Y1150D01*
X10957Y1172D01*
X10989Y1201D01*
X11018Y1238D01*
X11044Y1282D01*
X11065Y1334D01*
X11065Y1334D01*
X11466Y1000D02*
X11466Y2037D01*
X11624Y2037D01*
X11624Y1880D01*
X11654Y1930D01*
X11682Y1971D01*
X11710Y2003D01*
X11736Y2025D01*
X11762Y2041D01*
X11790Y2052D01*
X11819Y2058D01*
X11849Y2061D01*
X11893Y2057D01*
X11938Y2046D01*
X11984Y2029D01*
X12029Y2004D01*
X11969Y1841D01*
X11937Y1857D01*
X11904Y1869D01*
X11872Y1877D01*
X11840Y1879D01*
X11812Y1877D01*
X11785Y1870D01*
X11760Y1859D01*
X11736Y1844D01*
X11715Y1825D01*
X11697Y1803D01*
X11682Y1777D01*
X11671Y1748D01*
X11658Y1700D01*
X11649Y1650D01*
X11643Y1598D01*
X11642Y1543D01*
X11642Y1000D01*
X11466Y1000D01*
X11466Y1000D01*
X12064Y1310D02*
X12237Y1337D01*
X12248Y1288D01*
X12265Y1245D01*
X12289Y1208D01*
X12319Y1177D01*
X12356Y1152D01*
X12399Y1135D01*
X12449Y1125D01*
X12506Y1121D01*
X12563Y1124D01*
X12611Y1133D01*
X12652Y1149D01*
X12686Y1170D01*
X12711Y1196D01*
X12730Y1224D01*
X12741Y1254D01*
X12744Y1286D01*
X12741Y1314D01*
X12731Y1339D01*
X12715Y1361D01*
X12692Y1380D01*
X12668Y1392D01*
X12629Y1406D01*
X12578Y1422D01*
X12513Y1439D01*
X12423Y1463D01*
X12349Y1485D01*
X12289Y1505D01*
X12245Y1524D01*
X12210Y1543D01*
X12179Y1566D01*
X12153Y1593D01*
X12131Y1623D01*
X12115Y1655D01*
X12102Y1689D01*
X12095Y1724D01*
X12093Y1762D01*
X12095Y1796D01*
X12101Y1828D01*
X12111Y1860D01*
X12125Y1890D01*
X12142Y1918D01*
X12162Y1944D01*
X12185Y1967D01*
X12211Y1988D01*
X12233Y2003D01*
X12259Y2016D01*
X12289Y2028D01*
X12323Y2040D01*
X12359Y2049D01*
X12396Y2055D01*
X12435Y2059D01*
X12475Y2061D01*
X12534Y2058D01*
X12589Y2052D01*
X12641Y2041D01*
X12689Y2025D01*
X12732Y2006D01*
X12769Y1984D01*
X12800Y1959D01*
X12825Y1930D01*
X12845Y1898D01*
X12862Y1860D01*
X12876Y1817D01*
X12886Y1770D01*
X12714Y1746D01*
X12705Y1784D01*
X12691Y1817D01*
X12671Y1846D01*
X12646Y1871D01*
X12615Y1891D01*
X12578Y1905D01*
X12536Y1913D01*
X12487Y1916D01*
X12431Y1914D01*
X12384Y1906D01*
X12345Y1893D01*
X12314Y1876D01*
X12292Y1855D01*
X12276Y1833D01*
X12266Y1808D01*
X12263Y1782D01*
X12264Y1766D01*
X12268Y1750D01*
X12275Y1735D01*
X12284Y1721D01*
X12296Y1707D01*
X12312Y1695D01*
X12330Y1684D01*
X12352Y1674D01*
X12371Y1667D01*
X12404Y1658D01*
X12449Y1645D01*
X12507Y1629D01*
X12593Y1605D01*
X12665Y1584D01*
X12723Y1564D01*
X12767Y1547D01*
X12802Y1530D01*
X12833Y1508D01*
X12860Y1484D01*
X12883Y1455D01*
X12901Y1423D01*
X12914Y1387D01*
X12922Y1348D01*
X12925Y1305D01*
X12922Y1261D01*
X12912Y1219D01*
X12896Y1179D01*
X12874Y1139D01*
X12845Y1103D01*
X12811Y1070D01*
X12771Y1042D01*
X12726Y1019D01*
X12676Y1000D01*
X12623Y0987D01*
X12566Y0979D01*
X12507Y0977D01*
X12412Y0982D01*
X12329Y0998D01*
X12258Y1024D01*
X12199Y1061D01*
X12151Y1108D01*
X12112Y1165D01*
X12083Y1232D01*
X12064Y1310D01*
X12064Y1310D01*
X13135Y1000D02*
X13135Y2037D01*
X13311Y2037D01*
X13311Y1000D01*
X13135Y1000D01*
X13135Y1000D01*
X13135Y2229D02*
X13135Y2432D01*
X13311Y2432D01*
X13311Y2229D01*
X13135Y2229D01*
X13135Y2229D01*
X13513Y1519D02*
X13523Y1653D01*
X13553Y1769D01*
X13603Y1867D01*
X13673Y1945D01*
X13743Y1996D01*
X13821Y2032D01*
X13907Y2053D01*
X13999Y2061D01*
X14101Y2052D01*
X14193Y2026D01*
X14276Y1982D01*
X14349Y1920D01*
X14408Y1844D01*
X14450Y1754D01*
X14476Y1650D01*
X14484Y1533D01*
X14481Y1438D01*
X14469Y1354D01*
X14451Y1281D01*
X14424Y1218D01*
X14391Y1164D01*
X14351Y1116D01*
X14304Y1075D01*
X14250Y1040D01*
X14191Y1012D01*
X14130Y0992D01*
X14066Y0981D01*
X13999Y0977D01*
X13987Y0978D01*
X13999Y1121D01*
X14062Y1127D01*
X14119Y1146D01*
X14171Y1177D01*
X14217Y1221D01*
X14255Y1277D01*
X14282Y1346D01*
X14298Y1429D01*
X14304Y1524D01*
X14298Y1615D01*
X14282Y1693D01*
X14255Y1761D01*
X14216Y1816D01*
X14170Y1859D01*
X14118Y1890D01*
X14061Y1909D01*
X13999Y1915D01*
X13936Y1909D01*
X13878Y1890D01*
X13827Y1860D01*
X13780Y1816D01*
X13742Y1761D01*
X13715Y1693D01*
X13699Y1612D01*
X13693Y1519D01*
X13693Y1519D01*
X13699Y1425D01*
X13715Y1344D01*
X13742Y1276D01*
X13780Y1220D01*
X13827Y1177D01*
X13878Y1146D01*
X13936Y1127D01*
X13999Y1121D01*
X13987Y0978D01*
X13895Y0985D01*
X13802Y1011D01*
X13719Y1055D01*
X13647Y1116D01*
X13588Y1194D01*
X13546Y1287D01*
X13521Y1395D01*
X13513Y1519D01*
X13513Y1519D01*
X14690Y1000D02*
X14690Y2037D01*
X14849Y2037D01*
X14849Y1890D01*
X14912Y1964D01*
X14988Y2018D01*
X15077Y2050D01*
X15179Y2061D01*
X15225Y2058D01*
X15269Y2052D01*
X15311Y2042D01*
X15351Y2027D01*
X15388Y2009D01*
X15420Y1988D01*
X15447Y1965D01*
X15469Y1938D01*
X15487Y1910D01*
X15502Y1879D01*
X15514Y1845D01*
X15524Y1809D01*
X15528Y1780D01*
X15531Y1741D01*
X15533Y1694D01*
X15533Y1638D01*
X15533Y1000D01*
X15357Y1000D01*
X15357Y1631D01*
X15356Y1681D01*
X15352Y1725D01*
X15346Y1762D01*
X15337Y1792D01*
X15325Y1817D01*
X15309Y1839D01*
X15288Y1859D01*
X15264Y1876D01*
X15237Y1890D01*
X15207Y1900D01*
X15176Y1906D01*
X15142Y1908D01*
X15087Y1904D01*
X15037Y1890D01*
X14991Y1868D01*
X14948Y1837D01*
X14912Y1793D01*
X14887Y1734D01*
X14871Y1658D01*
X14866Y1566D01*
X14866Y1000D01*
X14690Y1000D01*
X14690Y1000D01*
X16972Y1000D02*
X16796Y1000D01*
X16796Y2120D01*
X16762Y2090D01*
X16723Y2060D01*
X16678Y2029D01*
X16629Y1999D01*
X16579Y1971D01*
X16532Y1946D01*
X16487Y1925D01*
X16444Y1908D01*
X16444Y2078D01*
X16516Y2115D01*
X16583Y2155D01*
X16645Y2199D01*
X16702Y2246D01*
X16753Y2295D01*
X16796Y2343D01*
X16831Y2391D01*
X16858Y2438D01*
X16972Y2438D01*
X16972Y1000D01*
X16972Y1000D01*
X17521Y1000D02*
X17521Y1200D01*
X17721Y1200D01*
X17721Y1000D01*
X17521Y1000D01*
X17521Y1000D01*
X17978Y1706D02*
X17981Y1827D01*
X17991Y1935D01*
X18007Y2031D01*
X18030Y2115D01*
X18059Y2188D01*
X18095Y2252D01*
X18137Y2307D01*
X18185Y2354D01*
X18240Y2390D01*
X18301Y2417D01*
X18370Y2432D01*
X18444Y2438D01*
X18500Y2435D01*
X18553Y2426D01*
X18601Y2411D01*
X18647Y2391D01*
X18688Y2365D01*
X18726Y2334D01*
X18760Y2298D01*
X18790Y2257D01*
X18817Y2211D01*
X18841Y2160D01*
X18861Y2105D01*
X18879Y2044D01*
X18893Y1976D01*
X18903Y1897D01*
X18909Y1807D01*
X18911Y1706D01*
X18908Y1586D01*
X18898Y1478D01*
X18882Y1383D01*
X18859Y1299D01*
X18830Y1226D01*
X18795Y1162D01*
X18753Y1107D01*
X18705Y1060D01*
X18650Y1023D01*
X18588Y0997D01*
X18520Y0981D01*
X18444Y0976D01*
X18431Y0977D01*
X18444Y1120D01*
X18503Y1127D01*
X18556Y1149D01*
X18604Y1186D01*
X18648Y1237D01*
X18684Y1311D01*
X18710Y1413D01*
X18725Y1545D01*
X18731Y1706D01*
X18725Y1868D01*
X18710Y2000D01*
X18684Y2103D01*
X18648Y2176D01*
X18604Y2227D01*
X18555Y2263D01*
X18501Y2285D01*
X18442Y2292D01*
X18385Y2286D01*
X18334Y2266D01*
X18288Y2234D01*
X18249Y2189D01*
X18209Y2110D01*
X18181Y2003D01*
X18164Y1868D01*
X18158Y1706D01*
X18158Y1706D01*
X18163Y1545D01*
X18179Y1412D01*
X18205Y1310D01*
X18241Y1237D01*
X18284Y1186D01*
X18333Y1149D01*
X18386Y1127D01*
X18444Y1120D01*
X18431Y0977D01*
X18346Y0985D01*
X18260Y1013D01*
X18184Y1059D01*
X18119Y1124D01*
X18057Y1227D01*
X18013Y1359D01*
X17986Y1518D01*
X17978Y1706D01*
X17978Y1706D01*
X19189Y1000D02*
X19189Y1200D01*
X19389Y1200D01*
X19389Y1000D01*
X19189Y1000D01*
X19189Y1000D01*
X19646Y1706D02*
X19649Y1827D01*
X19659Y1935D01*
X19675Y2031D01*
X19698Y2115D01*
X19727Y2188D01*
X19763Y2252D01*
X19805Y2307D01*
X19853Y2354D01*
X19908Y2390D01*
X19969Y2417D01*
X20038Y2432D01*
X20112Y2438D01*
X20168Y2435D01*
X20221Y2426D01*
X20269Y2411D01*
X20315Y2391D01*
X20356Y2365D01*
X20394Y2334D01*
X20428Y2298D01*
X20458Y2257D01*
X20485Y2211D01*
X20509Y2160D01*
X20529Y2105D01*
X20547Y2044D01*
X20561Y1976D01*
X20571Y1897D01*
X20577Y1807D01*
X20579Y1706D01*
X20576Y1586D01*
X20566Y1478D01*
X20550Y1383D01*
X20527Y1299D01*
X20498Y1226D01*
X20463Y1162D01*
X20421Y1107D01*
X20373Y1060D01*
X20318Y1023D01*
X20256Y0997D01*
X20188Y0981D01*
X20112Y0976D01*
X20099Y0977D01*
X20112Y1120D01*
X20171Y1127D01*
X20224Y1149D01*
X20272Y1186D01*
X20316Y1237D01*
X20352Y1311D01*
X20378Y1413D01*
X20393Y1545D01*
X20398Y1706D01*
X20393Y1868D01*
X20378Y2000D01*
X20352Y2103D01*
X20316Y2176D01*
X20272Y2227D01*
X20223Y2263D01*
X20169Y2285D01*
X20110Y2292D01*
X20053Y2286D01*
X20002Y2266D01*
X19956Y2234D01*
X19917Y2189D01*
X19877Y2110D01*
X19849Y2003D01*
X19832Y1868D01*
X19826Y1706D01*
X19826Y1706D01*
X19831Y1545D01*
X19847Y1412D01*
X19873Y1310D01*
X19909Y1237D01*
X19952Y1186D01*
X20001Y1149D01*
X20054Y1127D01*
X20112Y1120D01*
X20099Y0977D01*
X20014Y0985D01*
X19928Y1013D01*
X19852Y1059D01*
X19787Y1124D01*
X19725Y1227D01*
X19681Y1359D01*
X19654Y1518D01*
X19646Y1706D01*
X19646Y1706D01*
G37*
M02*