%FSLAX33Y33*%
%MOMM*%
%AMRR-H4000000-W2000000-R1000000-RO0.000*
21,1,2.,2.,0.,0.,360*
1,1,2.,0.,1.*
1,1,2.,0.,1.*
1,1,2.,0.,-1.*
1,1,2.,-0.,-1.*%
%AMRect-W1566000-H1566000-RO1.500*
21,1,1.566,1.566,0.,0.,90*%
%AMRect-W599999-H1000000-RO1.000*
21,1,0.599999,1.,0.,0.,180*%
%AMRect-W820710-H1670710-RO1.000*
21,1,0.82071,1.67071,0.,0.,180*%
%ADD10R,3.5X3.5*%
%ADD11C,3.5*%
%ADD12RR-H4000000-W2000000-R1000000-RO0.000*%
%ADD13C,2.*%
%ADD14R,7.X7.*%
%ADD15R,1.5X2.5*%
%ADD16C,1.566*%
%ADD17Rect-W1566000-H1566000-RO1.500*%
%ADD18Rect-W599999-H1000000-RO1.000*%
%ADD19Rect-W820710-H1670710-RO1.000*%
%ADD20R,0.82071X1.67071*%
%ADD21C,1.45*%
%ADD22R,1.45X1.45*%
D10*
%LNbottom solder mask_traces*%
%LNbottom solder mask component 850c937d07aa44eb*%
G01*
X75000Y51000D03*
D11*
X75000Y47000D03*
X75000Y43000D03*
X75000Y39000D03*
X75000Y35000D03*
X75000Y31000D03*
X75000Y27000D03*
X75000Y19000D03*
D12*
X69500Y35000D03*
%LNbottom solder mask component 22919f5b1da83a9d*%
D13*
X45000Y20000D03*
X37500Y20000D03*
X52500Y20000D03*
X40000Y22500D03*
X50000Y22500D03*
X42500Y10000D03*
X47500Y10000D03*
%LNbottom solder mask component 0d0e1ac56a31cf0a*%
D14*
X60000Y54500D03*
D15*
X57700Y61400D03*
X62300Y61400D03*
%LNbottom solder mask component 794d13895f8c3f47*%
D16*
X22265Y62445D03*
D17*
X9565Y62445D03*
%LNbottom solder mask component ed6aac9b1e4144ae*%
D18*
X60000Y67800D03*
X60950Y70200D03*
X59050Y70200D03*
%LNbottom solder mask component 3551aa586fd520a7*%
D19*
X82575Y19000D03*
X79425Y19000D03*
%LNbottom solder mask component f3a6a5f8d7136d03*%
X82575Y51000D03*
X79425Y51000D03*
%LNbottom solder mask component 2518a5df77d1979c*%
D20*
X58425Y73000D03*
X61575Y73000D03*
%LNbottom solder mask component e02644c225c8131e*%
D19*
X40075Y28000D03*
X36925Y28000D03*
%LNbottom solder mask component 954f632090d1658b*%
X82575Y27000D03*
X79425Y27000D03*
%LNbottom solder mask component 6262f7c8d15c121a*%
D21*
X50080Y63970D03*
X50080Y58890D03*
X50080Y56350D03*
X50080Y53810D03*
X50080Y33490D03*
X47540Y33490D03*
X45000Y33490D03*
X42460Y33490D03*
X39920Y33490D03*
D22*
X37380Y66510D03*
D21*
X37380Y63970D03*
X37380Y61430D03*
X37380Y58890D03*
X37380Y56350D03*
X37380Y53810D03*
X37380Y51270D03*
X37380Y48730D03*
X37380Y46190D03*
X37380Y43650D03*
X37380Y41110D03*
X37380Y38570D03*
X37380Y36030D03*
X37380Y33490D03*
X52620Y33490D03*
X52620Y36030D03*
X52620Y38570D03*
X52620Y41110D03*
X52620Y43650D03*
X52620Y46190D03*
X52620Y48730D03*
X52620Y51270D03*
X52620Y53810D03*
X52620Y56350D03*
X52620Y58890D03*
X52620Y61430D03*
X52620Y63970D03*
X52620Y66510D03*
%LNbottom solder mask component 37bf67a02f6b0f8a*%
D19*
X61575Y65250D03*
X58425Y65250D03*
%LNbottom solder mask component 8063edbf7f7efeab*%
X82575Y47000D03*
X79425Y47000D03*
%LNbottom solder mask component aa97142ff3d33da6*%
X53575Y28000D03*
X50425Y28000D03*
%LNbottom solder mask component 1206776b99d0c674*%
X82575Y31000D03*
X79425Y31000D03*
M02*