<?xml version="1.0" encoding="utf-8" ?>
<svg baseProfile="tiny" height="275.534638934" version="1.2" width="310.967708934" xmlns="http://www.w3.org/2000/svg" xmlns:ev="http://www.w3.org/2001/xml-events" xmlns:xlink="http://www.w3.org/1999/xlink"><defs /><g id="paths" stroke="green"><path d="M 4.893306967,270.641331967 L 306.074401967,270.641331967 L 306.074401967,4.893306967 L 4.893306967,4.893306967 L 4.893306967,270.641331967 Z" fill-opacity="0" stroke-linejoin="round" stroke-width="1.0" /></g><g fill="red" id="top_parts" stroke="red"><line stroke-linecap="round" stroke-width="0.5" x1="248.3185" x2="292.9642" y1="66.9012" y2="66.9012" /><line stroke-linecap="round" stroke-width="0.5" x1="292.9642" x2="292.9642" y1="66.9012" y2="226.35" /><line stroke-linecap="round" stroke-width="0.5" x1="292.9642" x2="248.3185" y1="226.35" y2="226.35" /><line stroke-linecap="round" stroke-width="0.5" x1="248.3185" x2="248.3185" y1="226.35" y2="66.9012" /><text font-family="monospace" font-size="2" stroke-width="0.1" text-anchor="middle" x="270.641331967" y="146.625586967">J1</text><line stroke-linecap="round" stroke-width="0.5" x1="128.9091" x2="128.9091" y1="239.6516" y2="186.502" /><line stroke-linecap="round" stroke-width="0.5" x1="128.9091" x2="199.7752" y1="186.502" y2="186.502" /><line stroke-linecap="round" stroke-width="0.5" x1="199.7752" x2="199.7752" y1="186.502" y2="239.6516" /><line stroke-linecap="round" stroke-width="0.5" x1="199.7752" x2="128.9091" y1="239.6516" y2="239.6516" /><text font-family="monospace" font-size="2" stroke-width="0.1" text-anchor="middle" x="164.342121967" y="213.076766445">J66</text><line stroke-linecap="round" stroke-width="0.5" x1="7.2496" x2="7.2496" y1="235.2968" y2="40.2378" /><line stroke-linecap="round" stroke-width="0.5" x1="7.2496" x2="115.9228" y1="40.2378" y2="40.2378" /><line stroke-linecap="round" stroke-width="0.5" x1="115.9228" x2="115.9228" y1="40.2378" y2="235.2968" /><line stroke-linecap="round" stroke-width="0.5" x1="115.9228" x2="7.2496" y1="235.2968" y2="235.2968" /><text font-family="monospace" font-size="2" stroke-width="0.1" text-anchor="middle" x="61.586218967" y="137.767319467">BAT1</text><line stroke-linecap="round" stroke-width="0.5" x1="132.4701" x2="196.2142" y1="28.7043" y2="28.7043" /><line stroke-linecap="round" stroke-width="0.5" x1="196.2142" x2="196.2142" y1="28.7043" y2="158.2476" /><line stroke-linecap="round" stroke-width="0.5" x1="196.2142" x2="132.4701" y1="158.2476" y2="158.2476" /><line stroke-linecap="round" stroke-width="0.5" x1="132.4701" x2="132.4701" y1="158.2476" y2="28.7043" /><text font-family="monospace" font-size="2" stroke-width="0.1" text-anchor="middle" x="164.342121967" y="93.475981967">DEV1</text></g><g fill="blue" id="bottom_parts" stroke="blue"><line stroke-linecap="round" stroke-width="0.5" x1="204.7358" x2="230.2476" y1="90.287" y2="90.287" /><line stroke-linecap="round" stroke-width="0.5" x1="230.2476" x2="230.2476" y1="90.287" y2="48.2988" /><line stroke-linecap="round" stroke-width="0.5" x1="230.2476" x2="204.7358" y1="48.2988" y2="48.2988" /><line stroke-linecap="round" stroke-width="0.5" x1="204.7358" x2="204.7358" y1="48.2988" y2="90.287" /><text font-family="monospace" font-size="2" stroke-width="0.1" text-anchor="middle" x="217.491726967" y="69.292911692">Q2</text><line stroke-linecap="round" stroke-width="0.5" x1="211.2909" x2="211.2909" y1="19.3323" y2="32.974" /><line stroke-linecap="round" stroke-width="0.5" x1="211.2909" x2="223.6925" y1="32.974" y2="32.974" /><line stroke-linecap="round" stroke-width="0.5" x1="223.6925" x2="223.6925" y1="32.974" y2="19.3323" /><line stroke-linecap="round" stroke-width="0.5" x1="223.6925" x2="211.2909" y1="19.3323" y2="19.3323" /><text font-family="monospace" font-size="2" stroke-width="0.1" text-anchor="middle" x="217.49173051" y="26.153148967">Q1</text><line stroke-linecap="round" stroke-width="0.5" x1="299.3788" x2="284.4235" y1="200.0409" y2="200.0409" /><line stroke-linecap="round" stroke-width="0.5" x1="284.4235" x2="284.4235" y1="200.0409" y2="206.5961" /><line stroke-linecap="round" stroke-width="0.5" x1="284.4235" x2="299.3788" y1="206.5961" y2="206.5961" /><line stroke-linecap="round" stroke-width="0.5" x1="299.3788" x2="299.3788" y1="206.5961" y2="200.0409" /><text font-family="monospace" font-size="2" stroke-width="0.1" text-anchor="middle" x="291.901173967" y="203.318498967">R5</text><line stroke-linecap="round" stroke-width="0.5" x1="299.3788" x2="284.4235" y1="86.6551" y2="86.6551" /><line stroke-linecap="round" stroke-width="0.5" x1="284.4235" x2="284.4235" y1="86.6551" y2="93.2102" /><line stroke-linecap="round" stroke-width="0.5" x1="284.4235" x2="299.3788" y1="93.2102" y2="93.2102" /><line stroke-linecap="round" stroke-width="0.5" x1="299.3788" x2="299.3788" y1="93.2102" y2="86.6551" /><text font-family="monospace" font-size="2" stroke-width="0.1" text-anchor="middle" x="291.901173967" y="89.932674967">R1</text><line stroke-linecap="round" stroke-width="0.5" x1="210.0141" x2="224.9694" y1="15.2575" y2="15.2575" /><line stroke-linecap="round" stroke-width="0.5" x1="224.9694" x2="224.9694" y1="15.2575" y2="8.7024" /><line stroke-linecap="round" stroke-width="0.5" x1="224.9694" x2="210.0141" y1="8.7024" y2="8.7024" /><line stroke-linecap="round" stroke-width="0.5" x1="210.0141" x2="210.0141" y1="8.7024" y2="15.2575" /><text font-family="monospace" font-size="2" stroke-width="0.1" text-anchor="middle" x="217.491726967" y="11.979920967">R6</text><line stroke-linecap="round" stroke-width="0.5" x1="148.7883" x2="133.833" y1="168.1512" y2="168.1512" /><line stroke-linecap="round" stroke-width="0.5" x1="133.833" x2="133.833" y1="168.1512" y2="174.7063" /><line stroke-linecap="round" stroke-width="0.5" x1="133.833" x2="148.7883" y1="174.7063" y2="174.7063" /><line stroke-linecap="round" stroke-width="0.5" x1="148.7883" x2="148.7883" y1="174.7063" y2="168.1512" /><text font-family="monospace" font-size="2" stroke-width="0.1" text-anchor="middle" x="141.310626467" y="171.428735967">R8</text><line stroke-linecap="round" stroke-width="0.5" x1="299.3788" x2="284.4235" y1="171.6945" y2="171.6945" /><line stroke-linecap="round" stroke-width="0.5" x1="284.4235" x2="284.4235" y1="171.6945" y2="178.2496" /><line stroke-linecap="round" stroke-width="0.5" x1="284.4235" x2="299.3788" y1="178.2496" y2="178.2496" /><line stroke-linecap="round" stroke-width="0.5" x1="299.3788" x2="299.3788" y1="178.2496" y2="171.6945" /><text font-family="monospace" font-size="2" stroke-width="0.1" text-anchor="middle" x="291.901173967" y="174.972042967">R3</text><line stroke-linecap="round" stroke-width="0.5" x1="224.9694" x2="210.0141" y1="36.163" y2="36.163" /><line stroke-linecap="round" stroke-width="0.5" x1="210.0141" x2="210.0141" y1="36.163" y2="42.7181" /><line stroke-linecap="round" stroke-width="0.5" x1="210.0141" x2="224.9694" y1="42.7181" y2="42.7181" /><line stroke-linecap="round" stroke-width="0.5" x1="224.9694" x2="224.9694" y1="42.7181" y2="36.163" /><text font-family="monospace" font-size="2" stroke-width="0.1" text-anchor="middle" x="217.491726967" y="39.440550217">R7</text><line stroke-linecap="round" stroke-width="0.5" x1="299.3788" x2="284.4235" y1="100.8283" y2="100.8283" /><line stroke-linecap="round" stroke-width="0.5" x1="284.4235" x2="284.4235" y1="100.8283" y2="107.3835" /><line stroke-linecap="round" stroke-width="0.5" x1="284.4235" x2="299.3788" y1="107.3835" y2="107.3835" /><line stroke-linecap="round" stroke-width="0.5" x1="299.3788" x2="299.3788" y1="107.3835" y2="100.8283" /><text font-family="monospace" font-size="2" stroke-width="0.1" text-anchor="middle" x="291.901173967" y="104.105902967">R2</text><line stroke-linecap="round" stroke-width="0.5" x1="196.6229" x2="181.6676" y1="168.1512" y2="168.1512" /><line stroke-linecap="round" stroke-width="0.5" x1="181.6676" x2="181.6676" y1="168.1512" y2="174.7063" /><line stroke-linecap="round" stroke-width="0.5" x1="181.6676" x2="196.6229" y1="174.7063" y2="174.7063" /><line stroke-linecap="round" stroke-width="0.5" x1="196.6229" x2="196.6229" y1="174.7063" y2="168.1512" /><text font-family="monospace" font-size="2" stroke-width="0.1" text-anchor="middle" x="189.145270967" y="171.428735967">R9</text><line stroke-linecap="round" stroke-width="0.5" x1="299.3788" x2="284.4235" y1="157.5213" y2="157.5213" /><line stroke-linecap="round" stroke-width="0.5" x1="284.4235" x2="284.4235" y1="157.5213" y2="164.0764" /><line stroke-linecap="round" stroke-width="0.5" x1="284.4235" x2="299.3788" y1="164.0764" y2="164.0764" /><line stroke-linecap="round" stroke-width="0.5" x1="299.3788" x2="299.3788" y1="164.0764" y2="157.5213" /><text font-family="monospace" font-size="2" stroke-width="0.1" text-anchor="middle" x="291.901173967" y="160.798814967">R4</text></g></svg>