<?xml version="1.0" encoding="utf-8" ?>
<svg baseProfile="tiny" height="275.534638934" version="1.2" width="310.967708934" xmlns="http://www.w3.org/2000/svg" xmlns:ev="http://www.w3.org/2001/xml-events" xmlns:xlink="http://www.w3.org/1999/xlink"><defs /><g id="paths" stroke="blue"><path d="M 4.893306967,270.641331967 L 306.074401967,270.641331967 L 306.074401967,4.893306967 L 4.893306967,4.893306967 L 4.893306967,270.641331967 Z" fill-opacity="0" stroke-linejoin="round" stroke-width="1.0" /></g><g fill="red" id="holes"><circle cx="221.035" cy="45.6413" r="1.125" stroke-width="0.0" /><circle cx="281.2713" cy="160.7988" r="1.125" stroke-width="0.0" /><circle cx="281.2713" cy="174.972" r="1.125" stroke-width="0.0" /><circle cx="225.4642" cy="45.6413" r="1.125" stroke-width="0.0" /><circle cx="281.2713" cy="104.1059" r="1.125" stroke-width="0.0" /><circle cx="229.8933" cy="45.6413" r="1.125" stroke-width="0.0" /><circle cx="281.2713" cy="89.9327" r="1.125" stroke-width="0.0" /><circle cx="281.2713" cy="203.3185" r="1.125" stroke-width="0.0" /><circle cx="270.6413" cy="89.9327" r="4.0748" stroke-width="0.0" /><circle cx="270.6413" cy="104.1059" r="4.0748" stroke-width="0.0" /><circle cx="270.6413" cy="118.2791" r="4.0748" stroke-width="0.0" /><circle cx="270.6413" cy="132.4524" r="4.0748" stroke-width="0.0" /><circle cx="270.6413" cy="146.6256" r="4.0748" stroke-width="0.0" /><circle cx="270.6413" cy="160.7988" r="4.0748" stroke-width="0.0" /><circle cx="270.6413" cy="174.972" r="4.0748" stroke-width="0.0" /><rect height="1" stroke-width="0.0" width="1" x="248.0315" y="127.5591" /><circle cx="270.6413" cy="203.3185" r="4.0748" stroke-width="0.0" /><circle cx="164.3421" cy="199.7752" r="2.3031" stroke-width="0.0" /><circle cx="137.7673" cy="199.7752" r="2.3031" stroke-width="0.0" /><circle cx="190.9169" cy="199.7752" r="2.3031" stroke-width="0.0" /><circle cx="146.6256" cy="190.9169" r="2.3031" stroke-width="0.0" /><circle cx="182.0587" cy="190.9169" r="2.3031" stroke-width="0.0" /><circle cx="155.4839" cy="235.2083" r="2.3031" stroke-width="0.0" /><circle cx="173.2004" cy="235.2083" r="2.3031" stroke-width="0.0" /><circle cx="190.9169" cy="217.4917" r="4.252" stroke-width="0.0" /><circle cx="137.7673" cy="217.4917" r="4.252" stroke-width="0.0" /><circle cx="38.785" cy="49.3795" r="1.8" stroke-width="0.0" /><circle cx="83.785" cy="49.3795" r="1.8" stroke-width="0.0" /><circle cx="21.9898" cy="186.0449" r="4.0571" stroke-width="0.0" /><circle cx="21.9898" cy="90.4819" r="4.0571" stroke-width="0.0" /><circle cx="101.1827" cy="138.2457" r="4.0571" stroke-width="0.0" /><circle cx="182.3421" cy="43.976" r="1.6831" stroke-width="0.0" /><circle cx="182.3421" cy="61.976" r="1.6831" stroke-width="0.0" /><circle cx="182.3421" cy="70.976" r="1.6831" stroke-width="0.0" /><circle cx="182.3421" cy="79.976" r="1.6831" stroke-width="0.0" /><circle cx="182.3421" cy="151.976" r="1.6831" stroke-width="0.0" /><circle cx="173.3421" cy="151.976" r="1.6831" stroke-width="0.0" /><circle cx="164.3421" cy="151.976" r="1.6831" stroke-width="0.0" /><circle cx="155.3421" cy="151.976" r="1.6831" stroke-width="0.0" /><circle cx="146.3421" cy="151.976" r="1.6831" stroke-width="0.0" /><circle cx="137.3421" cy="34.976" r="1.6831" stroke-width="0.0" /><circle cx="137.3421" cy="43.976" r="1.6831" stroke-width="0.0" /><circle cx="137.3421" cy="52.976" r="1.6831" stroke-width="0.0" /><circle cx="137.3421" cy="61.976" r="1.6831" stroke-width="0.0" /><circle cx="137.3421" cy="70.976" r="1.6831" stroke-width="0.0" /><circle cx="137.3421" cy="79.976" r="1.6831" stroke-width="0.0" /><circle cx="137.3421" cy="88.976" r="1.6831" stroke-width="0.0" /><circle cx="137.3421" cy="97.976" r="1.6831" stroke-width="0.0" /><circle cx="137.3421" cy="106.976" r="1.6831" stroke-width="0.0" /><circle cx="137.3421" cy="115.976" r="1.6831" stroke-width="0.0" /><circle cx="137.3421" cy="124.976" r="1.6831" stroke-width="0.0" /><circle cx="137.3421" cy="133.976" r="1.6831" stroke-width="0.0" /><circle cx="137.3421" cy="142.976" r="1.6831" stroke-width="0.0" /><circle cx="137.3421" cy="151.976" r="1.6831" stroke-width="0.0" /><circle cx="191.3421" cy="151.976" r="1.6831" stroke-width="0.0" /><circle cx="191.3421" cy="142.976" r="1.6831" stroke-width="0.0" /><circle cx="191.3421" cy="133.976" r="1.6831" stroke-width="0.0" /><circle cx="191.3421" cy="124.976" r="1.6831" stroke-width="0.0" /><circle cx="191.3421" cy="115.976" r="1.6831" stroke-width="0.0" /><circle cx="191.3421" cy="106.976" r="1.6831" stroke-width="0.0" /><circle cx="191.3421" cy="97.976" r="1.6831" stroke-width="0.0" /><circle cx="191.3421" cy="88.976" r="1.6831" stroke-width="0.0" /><circle cx="191.3421" cy="79.976" r="1.6831" stroke-width="0.0" /><circle cx="191.3421" cy="70.976" r="1.6831" stroke-width="0.0" /><circle cx="191.3421" cy="61.976" r="1.6831" stroke-width="0.0" /><circle cx="191.3421" cy="52.976" r="1.6831" stroke-width="0.0" /><circle cx="191.3421" cy="43.976" r="1.6831" stroke-width="0.0" /><circle cx="191.3421" cy="34.976" r="1.6831" stroke-width="0.0" /><circle cx="22.6098" cy="252.9248" r="5.6693" stroke-width="0.0" /><circle cx="22.6098" cy="22.6098" r="5.6693" stroke-width="0.0" /><circle cx="288.3579" cy="22.6098" r="5.6693" stroke-width="0.0" /><circle cx="288.3579" cy="252.9248" r="5.6693" stroke-width="0.0" /></g><g id="rulers" stroke="black" /></svg>